{"title":"Weekend.at.the.Cabin.2011.VODRiP.XviD-SiC.","uid":6986481,"size":1474645054,"categoryP":"video","categoryS":"movies","magnet":"?xt=urn:btih:0933f6c9f67fa2091f14309bd88063757eeeb6ad&amp;dn=Weekend.at.the.Cabin.2011.VODRiP.XviD-SiC.&amp;tr=udp%3A%2F%2Ftracker.openbittorrent.com%3A80&amp;tr=udp%3A%2F%2Fopen.demonii.com%3A1337&amp;tr=udp%3A%2F%2Ftracker.coppersurfer.tk%3A6969&amp;tr=udp%3A%2F%2Fexodus.desync.com%3A6969","seeders":0,"leechers":1,"uploader":"moviesp2p","files":3,"time":1327589839,"description":"[imgw=http://i.imgur.com/U7EYv.jpg]\nWeekend.at.the.Cabin.2011.VODRiP.XviD-SiC\n\nPoster:\n[img]http://img545.imageshack.us/img545/4112/51gmhpddplsx500.jpg[/img]\n\nIMDB Link: &lt;a href=&quot;\nhttp://www.imdb.com/title/tt1823267/&quot; rel=&quot;nofollow&quot; target=&quot;_NEW&quot;&gt;\nhttp://www.imdb.com/title/tt1823267/&lt;/a&gt;\n\nDescription: Going to for a weekend at the cabin could be deadly.\n\n\n\n\n\nGeneral\nComplete name                    : Weekend.at.the.Cabin.2011.VODRiP.XviD-SiC.avi\nFormat                           : AVI\nFormat/Info                      : Audio Video Interleave\nFile size                        : 1.36 GiB\nDuration                         : 1h 24mn\nOverall bit rate                 : 2 310 Kbps\nWriting application              : VirtualDubMod 1.5.10.2 (build 2540/release)\nWriting library                  : VirtualDubMod build 2540/release\n\nVideo\nID                               : 0\nFormat                           : MPEG-4 Visual\nFormat profile                   : Simple@L3\nFormat settings, BVOP            : 2\nFormat settings, QPel            : No\nFormat settings, GMC             : No warppoints\nFormat settings, Matrix          : Default (H.263)\nMuxing mode                      : Packed bitstream\nCodec ID                         : XVID\nCodec ID/Hint                    : XviD\nDuration                         : 1h 24mn\nBit rate                         : 2 042 Kbps\nWidth                            : 720 pixels\nHeight                           : 528 pixels\nDisplay aspect ratio             : 4:3\nFrame rate                       : 29.970 fps\nColor space                      : YUV\nChroma subsampling               : 4:2:0\nBit depth                        : 8 bits\nScan type                        : Progressive\nCompression mode                 : Lossy\nBits/(Pixel*Frame)               : 0.179\nStream size                      : 1.20 GiB (88%)\nWriting library                  : XviD 1.0.3 (UTC 2004-12-20)\n\nAudio\nID                               : 1\nFormat                           : AC-3\nFormat/Info                      : Audio Coding 3\nMode extension                   : CM (complete main)\nCodec ID                         : 2000\nDuration                         : 1h 24mn\nBit rate mode                    : Constant\nBit rate                         : 256 Kbps\nChannel(s)                       : 2 channels\nChannel positions                : Front: L R\nSampling rate                    : 48.0 KHz\nBit depth                        : 16 bits\nCompression mode                 : Lossy\nDelay relative to video          : 1ms\nStream size                      : 154 MiB (11%)\nAlignment                        : Split accross interleaves\nInterleave, duration             : 33 ms (1.00 video frame)\nInterleave, preload duration     : 500 ms\n","torrent":{"xt":"urn:btih:0933f6c9f67fa2091f14309bd88063757eeeb6ad","amp;dn":"Weekend.at.the.Cabin.2011.VODRiP.XviD-SiC.","amp;tr":["udp%3A%2F%2Ftracker.openbittorrent.com%3A80","udp%3A%2F%2Fopen.demonii.com%3A1337","udp%3A%2F%2Ftracker.coppersurfer.tk%3A6969","udp%3A%2F%2Fexodus.desync.com%3A6969"],"infoHash":"0933f6c9f67fa2091f14309bd88063757eeeb6ad","infoHashBuffer":{"type":"Buffer","data":[9,51,246,201,246,127,162,9,31,20,48,155,216,128,99,117,126,238,182,173]},"announce":[],"urlList":[]}}